<mxfile host="app.diagrams.net" modified="2022-03-18T09:14:06.467Z" agent="5.0 (Windows NT 10.0; Win64; x64) AppleWebKit/537.36 (KHTML, like Gecko) Chrome/99.0.4844.74 Safari/537.36" etag="gW606brk9tBBSZcI0QHd" version="17.1.2" type="github">
  <diagram id="otkijVXZBqR2P-0-kYZV" name="Page-1">
    <mxGraphModel dx="1038" dy="-517" grid="1" gridSize="10" guides="1" tooltips="1" connect="1" arrows="1" fold="1" page="1" pageScale="1" pageWidth="850" pageHeight="1100" math="0" shadow="0">
      <root>
        <mxCell id="0" />
        <mxCell id="1" parent="0" />
        <mxCell id="u4mcK2gIGsnnjjDS5qzK-1" value="Result" style="swimlane;fontStyle=0;childLayout=stackLayout;horizontal=1;startSize=26;fillColor=none;horizontalStack=0;resizeParent=1;resizeParentMax=0;resizeLast=0;collapsible=1;marginBottom=0;" vertex="1" parent="1">
          <mxGeometry x="90" y="1160" width="140" height="52" as="geometry" />
        </mxCell>
        <mxCell id="u4mcK2gIGsnnjjDS5qzK-2" value="idÂ  = 0" style="text;strokeColor=none;fillColor=none;align=left;verticalAlign=top;spacingLeft=4;spacingRight=4;overflow=hidden;rotatable=0;points=[[0,0.5],[1,0.5]];portConstraint=eastwest;" vertex="1" parent="u4mcK2gIGsnnjjDS5qzK-1">
          <mxGeometry y="26" width="140" height="26" as="geometry" />
        </mxCell>
        <mxCell id="u4mcK2gIGsnnjjDS5qzK-9" style="edgeStyle=orthogonalEdgeStyle;rounded=0;orthogonalLoop=1;jettySize=auto;html=1;startArrow=none;" edge="1" parent="1" source="u4mcK2gIGsnnjjDS5qzK-10" target="u4mcK2gIGsnnjjDS5qzK-2">
          <mxGeometry relative="1" as="geometry">
            <mxPoint x="150" y="1300" as="targetPoint" />
            <Array as="points">
              <mxPoint x="160" y="1240" />
              <mxPoint x="160" y="1240" />
            </Array>
          </mxGeometry>
        </mxCell>
        <mxCell id="u4mcK2gIGsnnjjDS5qzK-18" style="edgeStyle=orthogonalEdgeStyle;rounded=0;orthogonalLoop=1;jettySize=auto;html=1;entryX=0;entryY=0.5;entryDx=0;entryDy=0;startArrow=none;" edge="1" parent="1" source="u4mcK2gIGsnnjjDS5qzK-19" target="u4mcK2gIGsnnjjDS5qzK-13">
          <mxGeometry relative="1" as="geometry">
            <Array as="points">
              <mxPoint x="300" y="1199" />
            </Array>
          </mxGeometry>
        </mxCell>
        <mxCell id="u4mcK2gIGsnnjjDS5qzK-5" value="BetCreator" style="swimlane;fontStyle=0;childLayout=stackLayout;horizontal=1;startSize=26;fillColor=none;horizontalStack=0;resizeParent=1;resizeParentMax=0;resizeLast=0;collapsible=1;marginBottom=0;" vertex="1" parent="1">
          <mxGeometry x="90" y="1320" width="140" height="104" as="geometry" />
        </mxCell>
        <mxCell id="u4mcK2gIGsnnjjDS5qzK-6" value="id = 112" style="text;strokeColor=none;fillColor=none;align=left;verticalAlign=top;spacingLeft=4;spacingRight=4;overflow=hidden;rotatable=0;points=[[0,0.5],[1,0.5]];portConstraint=eastwest;" vertex="1" parent="u4mcK2gIGsnnjjDS5qzK-5">
          <mxGeometry y="26" width="140" height="26" as="geometry" />
        </mxCell>
        <mxCell id="u4mcK2gIGsnnjjDS5qzK-7" value="name = jack" style="text;strokeColor=none;fillColor=none;align=left;verticalAlign=top;spacingLeft=4;spacingRight=4;overflow=hidden;rotatable=0;points=[[0,0.5],[1,0.5]];portConstraint=eastwest;" vertex="1" parent="u4mcK2gIGsnnjjDS5qzK-5">
          <mxGeometry y="52" width="140" height="26" as="geometry" />
        </mxCell>
        <mxCell id="u4mcK2gIGsnnjjDS5qzK-8" value="balance = 1000" style="text;strokeColor=none;fillColor=none;align=left;verticalAlign=top;spacingLeft=4;spacingRight=4;overflow=hidden;rotatable=0;points=[[0,0.5],[1,0.5]];portConstraint=eastwest;" vertex="1" parent="u4mcK2gIGsnnjjDS5qzK-5">
          <mxGeometry y="78" width="140" height="26" as="geometry" />
        </mxCell>
        <mxCell id="u4mcK2gIGsnnjjDS5qzK-10" value="Publish" style="rounded=0;whiteSpace=wrap;html=1;dashed=1;fillColor=none;" vertex="1" parent="1">
          <mxGeometry x="120" y="1250" width="80" height="30" as="geometry" />
        </mxCell>
        <mxCell id="u4mcK2gIGsnnjjDS5qzK-11" value="" style="edgeStyle=orthogonalEdgeStyle;rounded=0;orthogonalLoop=1;jettySize=auto;html=1;endArrow=none;" edge="1" parent="1" source="u4mcK2gIGsnnjjDS5qzK-5" target="u4mcK2gIGsnnjjDS5qzK-10">
          <mxGeometry relative="1" as="geometry">
            <mxPoint x="160" y="1212" as="targetPoint" />
            <mxPoint x="160" y="1320" as="sourcePoint" />
            <Array as="points">
              <mxPoint x="160" y="1270" />
            </Array>
          </mxGeometry>
        </mxCell>
        <mxCell id="u4mcK2gIGsnnjjDS5qzK-12" value="Bet" style="swimlane;fontStyle=0;childLayout=stackLayout;horizontal=1;startSize=26;fillColor=none;horizontalStack=0;resizeParent=1;resizeParentMax=0;resizeLast=0;collapsible=1;marginBottom=0;" vertex="1" parent="1">
          <mxGeometry x="380" y="1160" width="140" height="78" as="geometry" />
        </mxCell>
        <mxCell id="u4mcK2gIGsnnjjDS5qzK-13" value="id = 3" style="text;strokeColor=none;fillColor=none;align=left;verticalAlign=top;spacingLeft=4;spacingRight=4;overflow=hidden;rotatable=0;points=[[0,0.5],[1,0.5]];portConstraint=eastwest;" vertex="1" parent="u4mcK2gIGsnnjjDS5qzK-12">
          <mxGeometry y="26" width="140" height="26" as="geometry" />
        </mxCell>
        <mxCell id="u4mcK2gIGsnnjjDS5qzK-14" value="name = Dino" style="text;strokeColor=none;fillColor=none;align=left;verticalAlign=top;spacingLeft=4;spacingRight=4;overflow=hidden;rotatable=0;points=[[0,0.5],[1,0.5]];portConstraint=eastwest;dashed=1;" vertex="1" parent="u4mcK2gIGsnnjjDS5qzK-12">
          <mxGeometry y="52" width="140" height="26" as="geometry" />
        </mxCell>
        <mxCell id="u4mcK2gIGsnnjjDS5qzK-17" value="&lt;b style=&quot;font-weight: normal&quot; id=&quot;docs-internal-guid-5575af3f-7fff-a8a3-b355-b966f7861531&quot;&gt;&lt;span style=&quot;font-size: 14pt; font-family: &amp;quot;times new roman&amp;quot;; color: rgb(0, 0, 10); background-color: transparent; font-weight: 400; font-style: normal; font-variant: normal; text-decoration: none; vertical-align: baseline;&quot;&gt;&lt;span style=&quot;border: none ; display: inline-block ; overflow: hidden ; width: 624px ; height: 725px&quot;&gt;&lt;img src=&quot;https://lh5.googleusercontent.com/Wpy_b5siY_lCBpJAHy5xMSrEbWnXfcTMdqdiJkgqOplZc2LkKM0_vYdX_wkKMhkRrsxrwhSF351xk5ZeYU-NnO5LncWKTurrlTZPaJBUjXd-G5w0JgHcnNvJCdTFKqnAAFCCJ3LV&quot; width=&quot;624&quot; height=&quot;750.9999999999999&quot; style=&quot;margin-left: 0px ; margin-top: 0px&quot;&gt;&lt;/span&gt;&lt;/span&gt;&lt;/b&gt;" style="text;whiteSpace=wrap;html=1;" vertex="1" parent="1">
          <mxGeometry x="450" y="1460" width="550" height="740" as="geometry" />
        </mxCell>
        <mxCell id="u4mcK2gIGsnnjjDS5qzK-19" value="Create" style="rounded=0;whiteSpace=wrap;html=1;dashed=1;fillColor=none;" vertex="1" parent="1">
          <mxGeometry x="260" y="1220" width="80" height="30" as="geometry" />
        </mxCell>
        <mxCell id="u4mcK2gIGsnnjjDS5qzK-21" value="" style="edgeStyle=orthogonalEdgeStyle;rounded=0;orthogonalLoop=1;jettySize=auto;html=1;entryX=0.5;entryY=1;entryDx=0;entryDy=0;endArrow=none;" edge="1" parent="1" source="u4mcK2gIGsnnjjDS5qzK-5" target="u4mcK2gIGsnnjjDS5qzK-19">
          <mxGeometry relative="1" as="geometry">
            <mxPoint x="160" y="1320" as="sourcePoint" />
            <mxPoint x="380" y="1199" as="targetPoint" />
            <Array as="points">
              <mxPoint x="160" y="1300" />
              <mxPoint x="300" y="1300" />
              <mxPoint x="300" y="1250" />
            </Array>
          </mxGeometry>
        </mxCell>
      </root>
    </mxGraphModel>
  </diagram>
</mxfile>
